# xmcd
#
# Track frame offsets:
# 183
# 42200
# 63098
# 95765
# 121738
# 156165
# 179730
# 197980
# 211068
# 233908
# 249535
# 275035
#
# Disc length: 4015 seconds
#
# Revision: 0
# Processed by: cddbd v1.4PL0 Copyright (c) Steve Scherf et al.
# Submitted via: Audion 3.0.2 (http://www.panic.com/audion/)
#
DISCID=ad0fad0c
DTITLE=Ravel - Trio PiaVioViolc
DYEAR=1900
DGENRE=
TTITLE0=Modéré
TTITLE1=Assez vif
TTITLE2=Passacaille
TTITLE3=Final
TTITLE4=
TTITLE5=
TTITLE6=
TTITLE7=
TTITLE8=
TTITLE9=
TTITLE10=
TTITLE11=
EXTD=
EXTT0=
EXTT1=
EXTT2=
EXTT3=
EXTT4=
EXTT5=
EXTT6=
EXTT7=
EXTT8=
EXTT9=
EXTT10=
EXTT11=
PLAYORDER=
